{"title":"Elysium (2013) BRRip 480p x264 370MB [Dual Audio] [Eng - Hindi]","uid":9479780,"size":393025348,"categoryP":"video","categoryS":"movies","magnet":"?xt=urn:btih:9c46ccff3f6d57ff3ece63f0dc3d415e7f4016a6&amp;dn=Elysium+%282013%29+BRRip+480p+x264+370MB+%5BDual+Audio%5D+%5BEng+-+Hindi%5D+&amp;tr=udp%3A%2F%2Ftracker.openbittorrent.com%3A80&amp;tr=udp%3A%2F%2Fopen.demonii.com%3A1337&amp;tr=udp%3A%2F%2Ftracker.coppersurfer.tk%3A6969&amp;tr=udp%3A%2F%2Fexodus.desync.com%3A6969","seeders":1,"leechers":1,"uploader":"Chaudhary1","files":3,"time":1389768832,"description":" &lt;a href=&quot;http://img843.imageshack.us/img843/3355/f8rv.png&quot; rel=&quot;nofollow&quot; target=&quot;_NEW&quot;&gt;http://img843.imageshack.us/img843/3355/f8rv.png&lt;/a&gt;\n\n\n* Elysium *\n(2013)\nBluRay 480p\nHindi | English\n\n &lt;a href=&quot;\nhttp://i.imgur.com/lQB3xWC.jpg&quot; rel=&quot;nofollow&quot; target=&quot;_NEW&quot;&gt;\nhttp://i.imgur.com/lQB3xWC.jpg&lt;/a&gt;\n\n\nComplete name                            : Elysium (2013) BRRip 480p x264 370MB [Dual Audio] [Eng - Hindi] Chaudharyâ„¢  ExD- XMR Exclusive.mkv\nFormat                                   : Matroska\nFormat version                           : Version 2\nFile size                                : 372 MiB\nDuration                                 : 1h 49mn\nOverall bit rate                         : 475 Kbps\nMovie name                               : Chaudharyâ„¢\n\nVideo\nID                                       : 2\nFormat                                   : AVC\nFormat/Info                              : Advanced Video Codec\nFormat profile                           : &lt;a class=&quot;__cf_email__&quot; href=&quot;/cdn-cgi/l/email-protection&quot; data-cfemail=&quot;da92b3bdb29a96e9f4eb&quot;&gt;[email&amp;#160;protected]&lt;/a&gt;&lt;script cf-hash='f9e31' type=&quot;text/javascript&quot;&gt;\n/* &lt;![CDATA[ */!function(){try{var t=&quot;currentScript&quot;in document?document.currentScript:function(){for(var t=document.getElementsByTagName(&quot;script&quot;),e=t.length;e--;)if(t[e].getAttribute(&quot;cf-hash&quot;))return t[e]}();if(t&amp;&amp;t.previousSibling){var e,r,n,i,c=t.previousSibling,a=c.getAttribute(&quot;data-cfemail&quot;);if(a){for(e=&quot;&quot;,r=parseInt(a.substr(0,2),16),n=2;a.length-n;n+=2)i=parseInt(a.substr(n,2),16)^r,e+=String.fromCharCode(i);e=document.createTextNode(e),c.parentNode.replaceChild(e,c)}}}catch(u){}}();/* ]]&gt; */&lt;/script&gt;\nFormat settings, CABAC                   : Yes\nFormat settings, ReFrames                : 16 frames\nMuxing mode                              : Header stripping\nCodec ID                                 : V_MPEG4/ISO/AVC\nDuration                                 : 1h 49mn\nBit rate                                 : 378 Kbps\nWidth                                    : 720 pixels\nHeight                                   : 304 pixels\nDisplay aspect ratio                     : 2.40:1\nOriginal display aspect ratio            : 2.40:1\nFrame rate mode                          : Constant\nFrame rate                               : 23.976 fps\nColor space                              : YUV\nChroma subsampling                       : 4:2:0\nBit depth                                : 8 bits\nScan type                                : Progressive\nBits/(Pixel*Frame)                       : 0.072\nStream size                              : 289 MiB (78%)\nTitle                                    : Chaudharyâ„¢\nWriting library                          : x264 core 138 r2358 \nLanguage                                 : English\nDefault                                  : Yes\nForced                                   : No\nColor primaries                          : Generic film\nTransfer characteristics                 : BT.709\nMatrix coefficients                      : BT.709\n\nAudio #1\nID                                       : 1\nFormat                                   : MPEG Audio\nFormat version                           : Version 2\nFormat profile                           : Layer 3\nMode                                     : Joint stereo\nMode extension                           : MS Stereo\nMuxing mode                              : Header stripping\nCodec ID                                 : A_MPEG/L3\nCodec ID/Hint                            : MP3\nDuration                                 : 1h 49mn\nBit rate mode                            : Constant\nChannel count                            : 2 channels\nCompression mode                         : Lossy\nStream size                              : 25.1 MiB (7%)\nTitle                                    : Chaudharyâ„¢\nWriting library                          : LAME3.99\nLanguage                                 : English\nDefault                                  : Yes\nForced                                   : No\n\nAudio #2\nID                                       : 3\nFormat                                   : AC-3\nFormat/Info                              : Audio Coding 3\nMode extension                           : CM (complete main)\nFormat settings, Endianness              : Big\nMuxing mode                              : Header stripping\nCodec ID                                 : A_AC3\nDuration                                 : 1h 49mn\nBit rate mode                            : Constant\nBit rate                                 : 64.0 Kbps\nChannel count                            : 2 channels\nChannel positions                        : Front: L R\nSampling rate                            : 48.0 KHz\nBit depth                                : 16 bits\nCompression mode                         : Lossy\nStream size                              : 50.2 MiB (13%)\nTitle                                    : Chaudharyâ„¢\nLanguage                                 : Hindi\nDefault                                  : No\nForced                                   : No\n\n &lt;a href=&quot;\nhttp://i.imgur.com/TF3p1CP.png&quot; rel=&quot;nofollow&quot; target=&quot;_NEW&quot;&gt;\nhttp://i.imgur.com/TF3p1CP.png&lt;/a&gt; &lt;a href=&quot;\nhttp://i.imgur.com/tMIW17C.png&quot; rel=&quot;nofollow&quot; target=&quot;_NEW&quot;&gt;\nhttp://i.imgur.com/tMIW17C.png&lt;/a&gt; &lt;a href=&quot;\nhttp://i.imgur.com/4EBIUjO.png&quot; rel=&quot;nofollow&quot; target=&quot;_NEW&quot;&gt;\nhttp://i.imgur.com/4EBIUjO.png&lt;/a&gt; &lt;a href=&quot;\nhttp://i.imgur.com/0GnpFVc.png&quot; rel=&quot;nofollow&quot; target=&quot;_NEW&quot;&gt;\nhttp://i.imgur.com/0GnpFVc.png&lt;/a&gt; &lt;a href=&quot;\nhttp://i.imgur.com/cwhJiSU.png&quot; rel=&quot;nofollow&quot; target=&quot;_NEW&quot;&gt;\nhttp://i.imgur.com/cwhJiSU.png&lt;/a&gt; &lt;a href=&quot;\nhttp://i.imgur.com/nS9xFDU.png&quot; rel=&quot;nofollow&quot; target=&quot;_NEW&quot;&gt;\nhttp://i.imgur.com/nS9xFDU.png&lt;/a&gt; &lt;a href=&quot;\nhttp://i.imgur.com/spxW0Ef.png&quot; rel=&quot;nofollow&quot; target=&quot;_NEW&quot;&gt;\nhttp://i.imgur.com/spxW0Ef.png&lt;/a&gt; &lt;a href=&quot;\nhttp://i.imgur.com/xTApbmB.png&quot; rel=&quot;nofollow&quot; target=&quot;_NEW&quot;&gt;\nhttp://i.imgur.com/xTApbmB.png&lt;/a&gt; &lt;a href=&quot;\nhttp://i.imgur.com/DjsCV7P.png&quot; rel=&quot;nofollow&quot; target=&quot;_NEW&quot;&gt;\nhttp://i.imgur.com/DjsCV7P.png&lt;/a&gt; &lt;a href=&quot;\nhttp://i.imgur.com/GUQND4U.png&quot; rel=&quot;nofollow&quot; target=&quot;_NEW&quot;&gt;\nhttp://i.imgur.com/GUQND4U.png&lt;/a&gt;\n\n\nSpecial Thanks To GPSoft For Hindi Audio.","torrent":{"xt":"urn:btih:9c46ccff3f6d57ff3ece63f0dc3d415e7f4016a6","amp;dn":"Elysium+%282013%29+BRRip+480p+x264+370MB+%5BDual+Audio%5D+%5BEng+-+Hindi%5D+","amp;tr":["udp%3A%2F%2Ftracker.openbittorrent.com%3A80","udp%3A%2F%2Fopen.demonii.com%3A1337","udp%3A%2F%2Ftracker.coppersurfer.tk%3A6969","udp%3A%2F%2Fexodus.desync.com%3A6969"],"infoHash":"9c46ccff3f6d57ff3ece63f0dc3d415e7f4016a6","infoHashBuffer":{"type":"Buffer","data":[156,70,204,255,63,109,87,255,62,206,99,240,220,61,65,94,127,64,22,166]},"announce":[],"urlList":[]}}